<?xml version="1.0" encoding="UTF-8"?>
<!-- Generated by Pixelmator Pro 3.2.3 -->
<svg width="652" height="919" viewBox="0 0 652 919" xmlns="http://www.w3.org/2000/svg" xmlns:xlink="http://www.w3.org/1999/xlink">
    <path id="Form-Kopie-4" fill="#000000" fill-opacity="0.864172" fill-rule="evenodd" stroke="none" d="M 317.83374 919.678467 C 305.771729 919.678467 292.036621 916.775696 287.312103 913.227905 C 282.586975 909.680115 275.467438 897.441772 271.491272 886.031555 C 267.515747 874.621399 262.561951 852.923096 260.483795 837.813049 C 257.417877 815.519104 258.070496 810.674988 263.947815 812.11499 C 267.930878 813.091003 279.557617 818.899475 289.785248 825.022705 C 303.061768 832.970947 309.407715 841.090393 311.967773 853.40509 C 313.940125 862.892212 322.424713 879.382019 330.821747 890.049133 C 339.219421 900.716309 344.667114 911.746704 342.927856 914.561157 C 341.187988 917.375732 329.895752 919.678467 317.83374 919.678467 Z M 305.177094 810.140747 C 302.747406 810.9505 291.198822 802.836426 279.513519 792.109619 C 258.266418 772.606201 258.266418 772.606201 263.871582 741.998047 C 266.953857 725.163696 268.176544 694.205261 266.58786 673.201538 C 264.151886 640.987427 259.547058 626.511108 237.156006 580.668091 C 219.862396 545.261841 207.146515 525.416626 200.666992 523.72229 C 192.268692 521.526001 190.721573 516.399414 190.721573 490.760742 C 190.721573 461.508575 191.211029 460.400055 204.132278 460.400055 C 212.586014 460.400055 223.374908 466.599396 233.319702 477.171448 C 241.99707 486.395752 254.563019 505.813843 261.244751 520.322815 C 267.926483 534.831787 277.774872 563.859253 283.131226 584.828247 C 292.194733 620.312317 293.053986 621.702393 295.532135 604.89209 C 296.996735 594.958374 304.421783 549.675415 312.032043 504.263702 C 319.642303 458.85199 330.460175 404.280334 336.070374 382.993591 C 341.681213 361.706787 354.47583 319.907288 364.501892 290.105774 C 374.528564 260.304321 393.108521 210.377075 405.791016 179.156494 C 418.47287 147.935974 438.902954 101.492065 451.191101 75.947876 C 463.478607 50.403687 479.455048 23.118042 486.693634 15.312805 C 495.437775 5.884399 505.071991 1.121643 515.401062 1.121643 C 525.558777 1.121643 532.822571 4.626587 536.359009 11.234436 C 539.33606 16.796448 543.183105 31.647827 544.908508 44.237427 C 547.964966 66.532837 547.567444 67.354797 529.614258 75.874023 C 519.476746 80.684692 505.509186 92.058655 498.574829 101.149719 C 491.641144 110.240601 475.805206 136.155701 463.384125 158.738586 C 450.963043 181.321289 432.420288 218.375854 422.17688 241.081726 C 411.934143 263.787537 396.532837 303.264832 387.952484 328.809021 C 379.371521 354.35321 367.51297 393.830505 361.599152 416.536377 C 355.685303 439.242249 345.986206 482.202911 340.044647 512.004395 C 334.103729 541.805786 325.763367 588.249695 321.51004 615.213013 C 317.257355 642.17627 312.836456 696.734131 311.685577 736.452759 C 310.535309 776.171387 307.60611 809.330994 305.177094 810.140747 Z M 428.10144 777.250122 C 421.005829 778.147583 407.557983 777.163086 398.217285 775.062439 C 388.877228 772.961792 376.447998 766.910828 370.597137 761.615906 C 364.746307 756.320984 356.780151 745.841064 352.894684 738.327148 C 349.008636 730.813232 344.345825 715.386597 342.532257 704.045776 C 340.719299 692.704956 342.154297 666.336548 345.72226 645.449219 C 349.289581 624.561951 357.893219 596.71698 364.84079 583.57135 C 371.78772 570.425842 382.477722 557.009766 388.595673 553.757751 C 397.609406 548.966614 403.634125 549.848694 420.360779 558.408569 C 431.713501 564.218445 441.002502 570.668091 441.002502 572.740845 C 441.002502 574.813843 435.548523 581.963745 428.882568 588.629883 C 422.216583 595.295898 410.87207 613.873413 403.673157 629.91333 C 395.150757 648.903137 389.691742 672.109863 388.026184 696.4375 C 386.265533 722.143311 387.485077 736.22937 391.934937 741.591309 C 395.924957 746.399109 407.174347 749.384216 421.30127 749.384216 C 441.716217 749.384216 447.173981 746.572205 471.603516 723.467529 C 492.634552 703.577209 501.112213 690.856079 508.062927 668.759277 C 514.607971 647.949707 516.417786 629.740662 514.590332 603.078247 C 512.93927 578.984314 507.543854 556.344238 499.035339 537.806519 C 491.869812 522.196289 471.779266 487.468994 454.389282 460.63501 C 436.998657 433.801025 420.265656 402.543152 417.204193 391.173096 C 413.171326 376.196411 413.232452 365.176025 417.426544 351.177246 C 420.61087 340.549805 429.235962 324.699829 436.594238 315.9552 C 443.952515 307.210571 456.547424 296.656006 464.582886 292.500671 C 472.618347 288.345276 487.551605 284.945374 497.767273 284.945374 C 507.982941 284.945374 522.768799 288.269043 530.624695 292.331543 C 538.47998 296.393799 557.909729 315.923401 573.801086 335.730591 C 602.694336 371.74353 602.694336 371.74353 597.191895 394.139954 C 594.165649 406.458008 590.78479 417.595612 589.67865 418.890289 C 588.572449 420.184967 579.680908 416.943146 569.919434 411.68634 C 553.220459 402.693237 552.205688 400.622498 552.745544 376.646179 C 553.151184 358.632996 550.322144 347.131653 543.092407 337.406372 C 535.974121 327.831055 527.260193 323.169067 514.429077 322.071106 C 500.09613 320.844421 492.325867 323.770203 479.513611 335.21814 C 465.116455 348.081726 463.033875 353.223755 463.033875 375.897949 C 463.033875 393.543091 467.427673 410.812164 476.75766 429.836365 C 484.305542 445.227264 503.198578 474.82666 518.741577 495.612823 C 534.285278 516.398926 553.070557 545.380981 560.487427 560.017578 C 568.872498 576.564392 574.933716 598.598633 576.513 618.275269 C 578.291931 640.434937 576.344177 658.078064 570.015198 677.133118 C 565.043762 692.099792 552.754333 713.446411 542.704346 724.570068 C 532.654968 735.693726 514.949402 750.298889 503.359192 757.026062 C 491.769012 763.753113 472.996948 770.688477 461.644257 772.437805 C 450.291534 774.187134 435.197021 776.352722 428.10144 777.250122 Z M 207.443848 751.874878 C 204.4422 757.026184 199.194214 756.431396 182.980927 749.102234 C 171.628235 743.970337 158.603058 738.649719 154.037277 737.278748 C 147.294449 735.254211 145.061325 723.315308 142.149139 673.709473 C 140.176804 640.117249 135.030869 588.249695 130.712662 558.448242 C 126.395081 528.64679 118.163712 486.84726 112.421219 465.560486 C 106.678734 444.273682 97.384659 416.40741 91.768158 403.635315 C 81.555641 380.41333 81.555641 380.41333 66.328209 398.45343 C 51.100151 416.493683 51.100151 416.493683 26.87409 402.747559 C 13.549694 395.187256 1.924234 386.82959 1.039175 384.174988 C 0.154745 381.520447 14.354752 365.388 32.594536 348.325256 C 50.834946 331.262451 78.200607 310.21521 93.407249 301.553772 C 108.613892 292.892334 135.75592 280.880066 153.722946 274.860107 C 172.796127 268.469543 200.117065 263.809326 219.374817 263.661438 C 237.516342 263.522217 260.475586 266.086975 270.395813 269.360901 C 280.31543 272.634827 294.221252 282.193359 301.296692 290.602173 C 308.372101 299.011047 315.628326 313.712463 317.421753 323.272217 C 319.671265 335.260376 317.530121 347.622375 310.522095 363.113586 C 304.933289 375.466614 291.202576 394.347046 280.008636 405.069824 C 268.814697 415.792725 247.174515 429.308624 231.919357 435.105133 C 216.664215 440.901642 192.915649 446.978638 179.144623 448.609711 C 154.279175 451.554657 154.129883 451.685059 157.473587 467.59848 C 159.324966 476.411438 165.269669 502.199585 170.68396 524.905457 C 176.098251 547.611328 184.024109 582.444214 188.296951 602.31189 C 192.569183 622.179626 199.485245 662.483398 203.664856 691.875854 C 207.844482 721.268311 209.545303 748.267883 207.443848 751.874878 Z M 120.204704 728.216309 C 117.834885 730.112976 109.168236 730.820068 100.94632 729.78772 C 92.724396 728.75531 81.097679 726.047974 75.109512 723.771179 C 69.121346 721.494446 61.121162 711.057922 57.332104 700.578857 C 53.543041 690.099731 51.643154 680.3255 53.110275 678.858276 C 54.577393 677.391174 64.659515 679.054077 75.515823 682.553589 C 86.371498 686.053162 98.034752 689.630188 101.434517 690.502502 C 104.833649 691.374817 111.417107 699.441345 116.064766 708.428162 C 120.711807 717.415039 122.57515 726.319763 120.204704 728.216309 Z M 157.185699 417.852142 C 163.871841 416.574158 181.916336 409.376221 197.285507 401.856812 C 212.654678 394.337463 233.901138 379.763245 244.499802 369.469788 C 255.098465 359.176331 266.217468 345.384216 269.207764 338.820618 C 272.1987 332.257141 273.251953 323.255554 271.548615 318.817322 C 269.185699 312.660034 260.61795 310.747498 235.395981 310.747498 C 217.215408 310.747498 192.986191 314.047729 181.553497 318.081421 C 170.120789 322.115173 151.101776 331.811462 139.28923 339.628784 C 122.667755 350.628113 118.426399 356.262878 120.531013 364.547485 C 122.026482 370.435486 128.150711 385.360535 134.140137 397.714355 C 143.237671 416.477936 147.031769 419.793304 157.185699 417.852142 Z M 621.102356 347.81134 C 612.469727 355.557495 609.187134 356.188232 604.962158 350.912842 C 602.045532 347.270386 598.204163 339.529724 596.426514 333.711365 C 594.057922 325.957764 597.824951 318.644714 610.52887 306.33136 C 620.062317 297.091003 632.843689 288.228088 638.931396 286.636108 C 649.076538 283.982971 650 285.742065 650 307.727478 C 650 325.916504 647.817261 332.483459 640.969238 334.90033 C 636.002197 336.65332 627.062134 342.463379 621.102356 347.81134 Z"/>
</svg>
